{
    "asset": {
        "version": "2.0",
        "generator": "Open Asset Import Library (assimp v5.0.5eb040c7)"
    },
    "accessors": [
        {
            "bufferView": 0,
            "byteOffset": 0,
            "componentType": 5126,
            "count": 10587,
            "type": "VEC3",
            "max": [
                -0.5056899785995483,
                2.765047073364258,
                -0.8556280136108398
            ],
            "min": [
                -3.983886957168579,
                -0.7175480127334595,
                -1.4210690259933472
            ]
        },
        {
            "bufferView": 1,
            "byteOffset": 0,
            "componentType": 5126,
            "count": 10587,
            "type": "VEC2",
            "max": [
                1.0,
                1.0
            ],
            "min": [
                0.0,
                0.0
            ]
        },
        {
            "bufferView": 2,
            "byteOffset": 0,
            "componentType": 5125,
            "count": 19110,
            "type": "SCALAR",
            "max": [
                10586
            ],
            "min": [
                0
            ]
        },
        {
            "bufferView": 3,
            "byteOffset": 0,
            "componentType": 5126,
            "count": 1146,
            "type": "VEC3",
            "max": [
                -2.17349910736084,
                2.472856044769287,
                -0.9704319834709168
            ],
            "min": [
                -2.3152620792388918,
                2.3667900562286379,
                -1.2468609809875489
            ]
        },
        {
            "bufferView": 4,
            "byteOffset": 0,
            "componentType": 5126,
            "count": 1146,
            "type": "VEC2",
            "max": [
                1.0,
                1.0
            ],
            "min": [
                0.0,
                0.0
            ]
        },
        {
            "bufferView": 5,
            "byteOffset": 0,
            "componentType": 5125,
            "count": 2019,
            "type": "SCALAR",
            "max": [
                85684232
            ],
            "min": [
                0
            ]
        },
        {
            "bufferView": 6,
            "byteOffset": 0,
            "componentType": 5126,
            "count": 25425,
            "type": "VEC3",
            "max": [
                3.7974860668182375,
                2.7608330249786379,
                -0.8594740033149719
            ],
            "min": [
                0.3233720064163208,
                -0.7163680195808411,
                -1.4142529964447022
            ]
        },
        {
            "bufferView": 7,
            "byteOffset": 0,
            "componentType": 5126,
            "count": 25425,
            "type": "VEC2",
            "max": [
                1.0,
                1.0
            ],
            "min": [
                0.0,
                0.0
            ]
        },
        {
            "bufferView": 8,
            "byteOffset": 0,
            "componentType": 5125,
            "count": 77004,
            "type": "SCALAR",
            "max": [
                25424
            ],
            "min": [
                0
            ]
        },
        {
            "bufferView": 9,
            "byteOffset": 0,
            "componentType": 5126,
            "count": 2069,
            "type": "VEC3",
            "max": [
                2.128587007522583,
                2.4709389209747316,
                -0.9715359807014465
            ],
            "min": [
                1.9930859804153443,
                2.3676369190216066,
                -1.2439919710159302
            ]
        },
        {
            "bufferView": 10,
            "byteOffset": 0,
            "componentType": 5126,
            "count": 2069,
            "type": "VEC2",
            "max": [
                1.0,
                1.0
            ],
            "min": [
                0.0,
                0.0
            ]
        },
        {
            "bufferView": 11,
            "byteOffset": 0,
            "componentType": 5125,
            "count": 8076,
            "type": "SCALAR",
            "max": [
                85684232
            ],
            "min": [
                0
            ]
        }
    ],
    "buffers": [
        {
            "byteLength": 1209376,
            "uri": "result.bin"
        }
    ],
    "bufferViews": [
        {
            "buffer": 0,
            "byteOffset": 0,
            "byteLength": 127044,
            "target": 34962
        },
        {
            "buffer": 0,
            "byteOffset": 127044,
            "byteLength": 84696,
            "target": 34962
        },
        {
            "buffer": 0,
            "byteOffset": 211740,
            "byteLength": 76440,
            "target": 34963
        },
        {
            "buffer": 0,
            "byteOffset": 288180,
            "byteLength": 13752,
            "target": 34962
        },
        {
            "buffer": 0,
            "byteOffset": 301932,
            "byteLength": 9168,
            "target": 34962
        },
        {
            "buffer": 0,
            "byteOffset": 311100,
            "byteLength": 8076,
            "target": 34963
        },
        {
            "buffer": 0,
            "byteOffset": 319176,
            "byteLength": 305100,
            "target": 34962
        },
        {
            "buffer": 0,
            "byteOffset": 624276,
            "byteLength": 203400,
            "target": 34962
        },
        {
            "buffer": 0,
            "byteOffset": 827676,
            "byteLength": 308016,
            "target": 34963
        },
        {
            "buffer": 0,
            "byteOffset": 1135692,
            "byteLength": 24828,
            "target": 34962
        },
        {
            "buffer": 0,
            "byteOffset": 1160520,
            "byteLength": 16552,
            "target": 34962
        },
        {
            "buffer": 0,
            "byteOffset": 1177072,
            "byteLength": 32304,
            "target": 34963
        }
    ],
    "materials": [
        {
            "name": "DefaultMaterial",
            "pbrMetallicRoughness": {
                "baseColorFactor": [
                    0.6000000238418579,
                    0.6000000238418579,
                    0.6000000238418579,
                    1.0
                ],
                "metallicFactor": 0.0
            }
        },
        {
            "name": "skeleton",
            "pbrMetallicRoughness": {
                "baseColorFactor": [
                    0.6000000238418579,
                    0.6000000238418579,
                    0.6000000238418579,
                    1.0
                ],
                "metallicFactor": 0.0
            }
        },
        {
            "name": "teeth",
            "pbrMetallicRoughness": {
                "baseColorFactor": [
                    0.6000000238418579,
                    0.6000000238418579,
                    0.6000000238418579,
                    1.0
                ],
                "metallicFactor": 0.0
            }
        }
    ],
    "meshes": [
        {
            "name": "Skeleton_lowPoly_Cube.002",
            "primitives": [
                {
                    "mode": 4,
                    "material": 1,
                    "indices": 2,
                    "attributes": {
                        "POSITION": 0,
                        "TEXCOORD_0": 1
                    }
                },
                {
                    "mode": 4,
                    "material": 2,
                    "indices": 5,
                    "attributes": {
                        "POSITION": 3,
                        "TEXCOORD_0": 4
                    }
                }
            ]
        },
        {
            "name": "Skeleton_highPoly_Cube.001",
            "primitives": [
                {
                    "mode": 4,
                    "material": 1,
                    "indices": 8,
                    "attributes": {
                        "POSITION": 6,
                        "TEXCOORD_0": 7
                    }
                },
                {
                    "mode": 4,
                    "material": 2,
                    "indices": 11,
                    "attributes": {
                        "POSITION": 9,
                        "TEXCOORD_0": 10
                    }
                }
            ]
        }
    ],
    "nodes": [
        {
            "name": "input.obj",
            "children": [
                1,
                2
            ]
        },
        {
            "name": "Skeleton_lowPoly_Cube.002",
            "mesh": 0
        },
        {
            "name": "Skeleton_highPoly_Cube.001",
            "mesh": 1
        }
    ],
    "scenes": [
        {
            "nodes": [
                0
            ]
        }
    ],
    "scene": 0
}